<svg xmlns="http://www.w3.org/2000/svg" viewBox="0 0 1024 1024" role="img" aria-labelledby="title desc">
  <title id="title">MUTA neon cat logo</title>
  <desc id="desc">A glowing black cat inside a purple and pink neon cyber badge.</desc>
  <defs>
    <radialGradient id="bg" cx="50%" cy="52%" r="58%">
      <stop offset="0%" stop-color="#ff42f6"/>
      <stop offset="38%" stop-color="#8f25ff"/>
      <stop offset="72%" stop-color="#21104f"/>
      <stop offset="100%" stop-color="#050510"/>
    </radialGradient>
    <linearGradient id="ring" x1="15%" x2="88%" y1="12%" y2="90%">
      <stop offset="0%" stop-color="#ff3beb"/>
      <stop offset="42%" stop-color="#c43cff"/>
      <stop offset="74%" stop-color="#5b54ff"/>
      <stop offset="100%" stop-color="#ff2aa8"/>
    </linearGradient>
    <linearGradient id="gold" x1="0%" x2="100%" y1="0%" y2="100%">
      <stop offset="0%" stop-color="#fff36c"/>
      <stop offset="100%" stop-color="#ff35b7"/>
    </linearGradient>
    <filter id="hotGlow" x="-30%" y="-30%" width="160%" height="160%">
      <feGaussianBlur stdDeviation="8" result="blur"/>
      <feColorMatrix in="blur" type="matrix" values="1 0 0 0 0.9 0 0.25 0 0 0.05 0 0 1 0 1 0 0 0 0.9 0"/>
      <feMerge>
        <feMergeNode/>
        <feMergeNode in="SourceGraphic"/>
      </feMerge>
    </filter>
    <filter id="softGlow" x="-40%" y="-40%" width="180%" height="180%">
      <feGaussianBlur stdDeviation="18" result="blur"/>
      <feMerge>
        <feMergeNode in="blur"/>
        <feMergeNode in="SourceGraphic"/>
      </feMerge>
    </filter>
  </defs>
  <rect width="1024" height="1024" fill="#050510"/>
  <circle cx="512" cy="512" r="430" fill="url(#bg)" filter="url(#softGlow)"/>
  <g opacity=".9">
    <path d="M146 194 69 163 111 231 82 275 156 252 204 303 197 231 256 190Z" fill="url(#gold)" filter="url(#hotGlow)"/>
    <path d="M797 265 823 315 880 323 839 363 849 421 797 393 746 421 756 363 715 323 772 315Z" fill="#ff38bd" filter="url(#hotGlow)"/>
    <path d="M177 774 225 750 205 800 249 834 195 839 177 891 158 839 105 834 148 800 129 750Z" fill="url(#gold)" filter="url(#hotGlow)"/>
    <path d="M792 706 825 724 860 708 853 747 880 776 841 781 823 817 806 782 767 778 795 750Z" fill="#35f5ff" filter="url(#hotGlow)"/>
  </g>
  <g fill="none" stroke-linecap="round" filter="url(#hotGlow)">
    <circle cx="512" cy="512" r="463" stroke="url(#ring)" stroke-width="12"/>
    <circle cx="512" cy="512" r="395" stroke="#f482ff" stroke-width="16" opacity=".95"/>
    <circle cx="512" cy="512" r="318" stroke="#ff5df7" stroke-width="8" opacity=".55"/>
    <path d="M270 119c123-62 338-73 503 0" stroke="#ff5df7" stroke-width="18" opacity=".75"/>
    <path d="M887 233c37 40 63 87 83 141" stroke="#8b46ff" stroke-width="16" opacity=".8"/>
    <path d="M92 686c29 66 78 125 143 169" stroke="#ff3fc8" stroke-width="15" opacity=".75"/>
  </g>
  <g opacity=".9" filter="url(#hotGlow)">
    <path d="M356 160 371 207 420 207 381 236 396 282 356 253 316 282 331 236 292 207 341 207Z" fill="#fff6a8"/>
    <path d="M511 111 535 184 612 184 550 229 574 302 511 257 449 302 473 229 411 184 488 184Z" fill="#fff"/>
    <path d="M691 118 703 154 741 154 710 176 722 213 691 190 661 213 673 176 642 154 680 154Z" fill="#ffe96f"/>
    <path d="M254 389 272 443 329 443 283 477 301 531 254 498 208 531 226 477 180 443 237 443Z" fill="#fff"/>
    <path d="M782 401 803 466 871 466 816 506 837 571 782 531 727 571 748 506 693 466 761 466Z" fill="#fff"/>
  </g>
  <g opacity=".75">
    <path d="M99 598c62-62 120-83 187-69-45 32-83 86-104 161-35-7-64-35-83-92Z" fill="#161139" stroke="#ff59df" stroke-width="9"/>
    <path d="M107 692c57-47 108-57 158-41-35 30-66 69-85 122-30-5-55-28-73-81Z" fill="#0c0b24" stroke="#be44ff" stroke-width="8"/>
    <path d="M860 598c-62-62-120-83-187-69 45 32 83 86 104 161 35-7 64-35 83-92Z" fill="#161139" stroke="#ff59df" stroke-width="9"/>
    <path d="M852 692c-57-47-108-57-158-41 35 30 66 69 85 122 30-5 55-28 73-81Z" fill="#0c0b24" stroke="#be44ff" stroke-width="8"/>
  </g>
  <g filter="url(#hotGlow)">
    <path d="M302 318c8-91 38-148 88-177 40 54 72 116 95 187" fill="#070711" stroke="#ff50db" stroke-width="12"/>
    <path d="M724 318c-8-91-38-148-88-177-40 54-72 116-95 187" fill="#070711" stroke="#ff50db" stroke-width="12"/>
    <path d="M391 178c26 39 49 91 69 154" stroke="#d494ff" stroke-width="16" opacity=".55"/>
    <path d="M635 178c-26 39-49 91-69 154" stroke="#d494ff" stroke-width="16" opacity=".55"/>
    <path d="M327 315c62-57 306-58 370 0 76 72 78 186 5 251-24 21-45 33-65 42 22 82 45 198 8 258-37 62-226 63-265 0-37-60-13-176 8-258-20-9-41-21-65-42-74-65-72-179 4-251Z" fill="#03040c" stroke="#8f25ff" stroke-width="10"/>
    <path d="M395 560c-40 95-64 222-32 296 40 95 258 95 298 0 31-75 7-201-33-296" fill="#03040c" stroke="#ff50db" stroke-width="10"/>
    <ellipse cx="404" cy="420" rx="74" ry="103" fill="#ffffed"/>
    <ellipse cx="620" cy="420" rx="74" ry="103" fill="#ffffed"/>
    <ellipse cx="404" cy="420" rx="48" ry="77" fill="#03040c"/>
    <ellipse cx="620" cy="420" rx="48" ry="77" fill="#03040c"/>
    <circle cx="512" cy="545" r="14" fill="#54a8ff" stroke="#c5f6ff" stroke-width="3"/>
    <path d="M399 825c37 20 71 21 103 0M523 825c32 20 66 20 103 0" fill="none" stroke="#7523ff" stroke-width="8" stroke-linecap="round"/>
    <path d="M452 659c-4 70-7 122-21 178M572 659c4 70 7 122 21 178" fill="none" stroke="#7e30ff" stroke-width="8" stroke-linecap="round"/>
  </g>
</svg>
